<?xml version="1.0" encoding="utf-8"?>
<svg version="1.1" xmlns="http://www.w3.org/2000/svg" xmlns:xlink="http://www.w3.org/1999/xlink" x="0px" y="0px" viewBox="0 0 700 1000" enable-background="new 0 0 1000 1000" xml:space="preserve">
<metadata> Svg Vector Icons : http://www.onlinewebfonts.com/icon </metadata>
<g><path d="M434.4,823.3c-15.6,0-28.3-12.6-28.3-28.1h-56.6c0,46.6,38,84.4,84.9,84.4c46.9,0,84.9-37.8,84.9-84.4h-56.6C462.7,810.7,450,823.3,434.4,823.3z"/><path d="M264.6,823.3c-15.6,0-28.3-12.6-28.3-28.1h-56.6c0,46.6,38,84.4,84.9,84.4c46.9,0,84.9-37.8,84.9-84.4h-56.6C292.9,810.7,280.2,823.3,264.6,823.3z"/><path d="M349.5,120.4C162,120.4,10,271.5,10,457.8v337.4c0,46.6,38,84.4,84.9,84.4c46.9,0,84.9-37.8,84.9-84.4h-56.6c0,15.5-12.7,28.1-28.3,28.1c-15.6,0-28.3-12.6-28.3-28.1V457.8c0-155,126.9-281.2,282.9-281.2c156,0,282.9,126.1,282.9,281.2v337.4c0,15.5-12.7,28.1-28.3,28.1c-15.6,0-28.3-12.6-28.3-28.1h-56.6c0,46.6,38,84.4,84.9,84.4c46.9,0,84.9-37.8,84.9-84.4V457.8C689.1,271.5,537,120.4,349.5,120.4z"/><path d="M179.8,738.9c-31.2,0-56.6,25.2-56.6,56.2h113.2C236.4,764.1,211,738.9,179.8,738.9z"/><path d="M349.4,738.9c-31.3,0-56.6,25.2-56.6,56.2H406C406,764.1,380.7,738.9,349.4,738.9z"/><path d="M519.2,738.9c-31.3,0-56.6,25.2-56.6,56.2h113.2C575.8,764.1,550.4,738.9,519.2,738.9z"/><path d="M243.7,401.6c-47.6,0-86.2,37.8-86.2,84.3c0,46.6,38.6,84.3,86.2,84.3c47.6,0,86.2-37.8,86.2-84.3C329.9,439.4,291.3,401.6,243.7,401.6z M243.7,514.1c-15.9,0-28.7-12.6-28.7-28.1c0-15.5,12.9-28.1,28.7-28.1c15.9,0,28.7,12.6,28.7,28.1C272.4,501.5,259.6,514.1,243.7,514.1z"/><path d="M477.4,401.6c-47.6,0-86.2,37.8-86.2,84.3c0,46.6,38.6,84.3,86.2,84.3c47.6,0,86.2-37.8,86.2-84.3C563.6,439.4,525,401.6,477.4,401.6z M477.4,514.1c-15.9,0-28.7-12.6-28.7-28.1c0-15.5,12.9-28.1,28.7-28.1c15.9,0,28.7,12.6,28.7,28.1C506.2,501.5,493.3,514.1,477.4,514.1z"/></g>
</svg>
